<svg width="32" height="32" viewBox="0 0 32 32" fill="none" xmlns="http://www.w3.org/2000/svg">
<path d="M23.5614 28.1058L23.7644 26.5048L23.7354 24.1394V12.9615C23.7354 12.3654 23.948 11.7837 24.3734 11.2163H23.5759C23.2956 12.5913 22.4256 15.0337 20.966 18.5433C19.5837 21.8702 18.8926 23.9856 18.8926 24.8894L18.9216 28.0625C18.9216 28.4087 18.9989 28.9231 19.1536 29.6058C19.3179 30.2981 19.4001 30.8221 19.4001 31.1779C19.4001 31.726 19.1874 32 18.7621 32C18.3368 32 18.1242 31.7212 18.1242 31.1635C18.1242 30.7981 18.2111 30.2548 18.3851 29.5337C18.5591 28.8221 18.6461 28.2837 18.6461 27.9183C18.6461 26.7644 18.3561 25.9038 17.7762 25.3365C17.2059 24.7788 16.5679 24.5 15.8623 24.5C15.1663 24.5 14.5911 24.649 14.1368 24.9471C13.6825 25.2452 13.4554 25.6154 13.4554 26.0577L13.6294 27.6298C13.6294 27.9856 13.4989 28.1635 13.2379 28.1635C12.9769 28.1635 12.8464 27.9712 12.8464 27.5865L13.1074 24.8894C13.1074 23.9663 12.4114 21.8654 11.0195 18.5865C9.56955 15.1538 8.70926 12.7019 8.4386 11.2308H7.64114C8.04712 11.7692 8.25011 12.3462 8.25011 12.9615V27.2115L8.5401 29.6346C8.5401 30.1442 8.36611 30.399 8.01812 30.399C7.67014 30.399 7.49615 30.1538 7.49615 29.6635L7.81513 27.2981C7.81513 26.9327 7.74264 26.6683 7.59764 26.5048C7.27866 26.149 6.19121 25.9712 4.3353 25.9712C2.47938 25.9712 1.55143 25.9808 1.55143 26L1.62392 27.9038C1.62392 28.125 1.51276 28.2356 1.29044 28.2356C1.06812 28.2356 0.956955 28.1346 0.956955 27.9327L1.04395 25.9279V8.20192C1.04395 7.06731 0.695967 6.12019 0 5.36058L0.304486 5.05769C1.09712 5.75 2.04924 6.09615 3.16085 6.09615H10.57C11.8363 6.09615 12.7449 5.73077 13.2959 5L13.6729 5.27404C13.1799 5.98558 12.9334 6.64423 12.9334 7.25C12.9334 7.84615 13.0881 8.50961 13.3974 9.24038C13.7067 9.96154 14.045 10.649 14.4123 11.3029C15.4079 13.0721 15.9058 14.5192 15.9058 15.6442H16.1087C16.1087 14.4808 16.6017 13.0337 17.5877 11.3029C18.564 9.59135 19.0521 8.33654 19.0521 7.53846C19.0521 6.73077 18.8105 5.97596 18.3271 5.27404L18.7041 5C19.2551 5.73077 20.1637 6.09615 21.43 6.09615H28.8536C29.9749 6.09615 30.927 5.75 31.71 5.05769L32 5.36058C31.3137 6.12981 30.9705 7.07692 30.9705 8.20192V24.1394C30.9705 24.5817 30.9609 25.0625 30.9415 25.5817L30.6516 25.8702C30.4582 25.4952 30.1731 25.3077 29.7961 25.3077H24.9098C24.6972 25.3077 24.5038 25.4375 24.3299 25.6971C24.1559 25.9567 24.0689 26.1971 24.0689 26.4183L24.3154 28.2067C24.3154 28.5529 24.1897 28.726 23.9384 28.726C23.6871 28.726 23.5614 28.5192 23.5614 28.1058Z" fill="white"/>
</svg>
