<svg width="41" height="40" viewBox="0 0 41 40" fill="none" xmlns="http://www.w3.org/2000/svg">
<path d="M23.916 39.2246C32.854 37.4597 39.5947 29.5777 39.5947 20.1221C39.5946 9.36792 30.8762 0.650391 20.1221 0.650391C9.36797 0.650474 0.650474 9.36797 0.650391 20.1221C0.650391 29.5776 7.39031 37.4596 16.3281 39.2246V26.5889H11.8691C11.5102 26.5889 11.2188 26.2975 11.2188 25.9385V20.1221C11.2188 19.7632 11.5102 19.4727 11.8691 19.4727H16.3281V15.6895C16.3281 13.0382 17.1203 10.8996 18.5947 9.42383C20.0684 7.94878 22.1488 7.21006 24.5781 7.20996C25.7133 7.20996 26.8668 7.31142 27.7305 7.41113C28.1636 7.46115 28.5274 7.51117 28.7832 7.54883C28.9111 7.56765 29.0123 7.58359 29.082 7.59473C29.1166 7.60025 29.1436 7.60436 29.1621 7.60742C29.1712 7.60892 29.1786 7.6105 29.1836 7.61133C29.1859 7.61172 29.1881 7.61207 29.1895 7.6123H29.1924C29.5045 7.66562 29.7323 7.93631 29.7324 8.25293V13.2051C29.7324 13.564 29.4419 13.8554 29.083 13.8555H26.5459C25.4373 13.8555 24.8158 14.1931 24.46 14.6045C24.0889 15.0336 23.916 15.6465 23.916 16.3477V19.4727H28.8467C29.0363 19.4727 29.2164 19.5554 29.3398 19.6992C29.4633 19.8431 29.518 20.0333 29.4893 20.2207L28.5977 26.0371C28.5551 26.3148 28.3404 26.5291 28.0723 26.5781L27.9551 26.5889H23.916V39.2246Z" fill="white" stroke="white" stroke-width="1.3" stroke-linejoin="round"/>
</svg>
