<svg width="46" height="46" viewBox="0 0 46 46" fill="none" xmlns="http://www.w3.org/2000/svg">
<mask id="mask0_235_348" style="mask-type:luminance" maskUnits="userSpaceOnUse" x="1" y="0" width="44" height="45">
<path d="M44.8837 0.299316H1.07422V44.1088H44.8837V0.299316Z" fill="white"/>
</mask>
<g mask="url(#mask0_235_348)">
<path d="M22.9785 0.674316C28.6885 0.675018 34.1649 2.94235 38.2021 6.97803C42.2396 11.0138 44.5081 16.4876 44.5088 22.1948C44.5087 26.4511 43.2455 30.6119 40.8799 34.1509C38.5142 37.6897 35.1516 40.448 31.2178 42.0767C27.2837 43.7055 22.9545 44.1317 18.7783 43.3013C14.6021 42.471 10.7658 40.4214 7.75488 37.4116C4.744 34.402 2.694 30.5673 1.86328 26.3931C1.03258 22.2186 1.45847 17.8917 3.08789 13.9595C4.7174 10.0272 7.47704 6.66597 11.0176 4.30127C14.3368 2.08437 18.2028 0.836309 22.1816 0.688965L22.9785 0.674316ZM29.4736 6.52295C26.3726 5.23907 22.9597 4.90361 19.668 5.55811C16.3764 6.21266 13.3527 7.82764 10.9795 10.1997C8.60619 12.572 6.98977 15.5948 6.33496 18.8853C5.68016 22.1757 6.01637 25.5863 7.30078 28.686C8.58517 31.7854 10.7602 34.4345 13.5508 36.2983C16.3414 38.1621 19.6224 39.1576 22.9785 39.1577H22.9795C27.4785 39.1532 31.7923 37.3648 34.9736 34.1851C38.1553 31.005 39.9447 26.6922 39.9492 22.1948L39.9375 21.5669C39.8214 18.4318 38.837 15.3853 37.0889 12.77C35.2242 9.98081 32.5741 7.80676 29.4736 6.52295Z" stroke="white" stroke-width="0.75"/>
<path d="M20.3228 25.3939C21.0526 26.0484 21.9986 26.4102 22.979 26.4102C23.9595 26.4102 24.9053 26.0484 25.6352 25.3939V19.0325C24.9062 18.3764 23.9599 18.0133 22.979 18.0133C21.9981 18.0133 21.0518 18.3764 20.3228 19.0325V25.3939ZM22.979 10.9353C21.4982 10.9353 20.0319 11.2271 18.6641 11.7941C17.2963 12.3612 16.0538 13.1923 15.0078 14.24L18.7561 17.9921C19.8757 16.873 21.3943 16.2443 22.9777 16.2443C24.561 16.2443 26.0796 16.873 27.1992 17.9921L30.953 14.24C29.9064 13.1915 28.6631 12.3598 27.2943 11.7927C25.9254 11.2256 24.458 10.9342 22.9764 10.9353H22.979ZM27.2047 26.4451C26.6505 26.9995 25.9923 27.4393 25.2679 27.7394C24.5437 28.0395 23.7672 28.194 22.983 28.194C22.199 28.194 21.4225 28.0395 20.6982 27.7394C19.9738 27.4393 19.3157 26.9995 18.7615 26.4451L15.0132 30.1864C16.06 31.2337 17.303 32.0645 18.6712 32.6314C20.0395 33.1981 21.506 33.4899 22.9871 33.4899C24.4681 33.4899 25.9349 33.1981 27.303 32.6314C28.6712 32.0645 29.9143 31.2337 30.9611 30.1864L27.2047 26.4451ZM22.9709 44.1084C23.0651 42.8511 22.7341 41.5984 22.031 40.5513C21.3277 39.5045 20.2932 38.7238 19.0932 38.3348H19.0716C15.9122 37.5521 13.0524 35.8591 10.8472 33.466C8.64197 31.0729 7.18846 28.0851 6.66708 24.8736H17.6693C17.2407 24.0542 17.0169 23.1432 17.0169 22.2186C17.0169 21.2939 17.2407 20.383 17.6693 19.5635H6.65628C7.08469 16.8856 8.16523 14.354 9.80275 12.1916C11.4403 10.0293 13.5845 8.30252 16.0468 7.16341C18.509 6.0243 21.2136 5.50776 23.9225 5.65927C26.6314 5.81079 29.2615 6.62573 31.5813 8.0323C32.6905 8.69773 34.005 8.93434 35.2768 8.69746C36.5486 8.46061 37.6896 7.76667 38.4848 6.74658C35.9396 4.1975 32.8049 2.31529 29.3584 1.26665C25.9116 0.218027 22.2592 0.0353828 18.7251 0.734904C15.1909 1.43443 11.8839 2.99452 9.09709 5.27693C6.31027 7.55936 4.1297 10.4937 2.74858 13.8198C1.36747 17.146 0.828462 20.7613 1.17931 24.3455C1.53016 27.9296 2.76004 31.3719 4.75996 34.3674C6.75991 37.3629 9.46813 39.819 12.6447 41.5182C15.8213 43.2173 19.3681 44.1071 22.9709 44.1084Z" fill="white"/>
</g>
</svg>
