<svg width="42" height="42" viewBox="0 0 42 42" fill="none" xmlns="http://www.w3.org/2000/svg">
<path d="M0.780282 11.6912C0.878745 9.53968 1.21564 8.15204 1.67124 6.97415L1.67736 6.95788C2.12884 5.75927 2.83609 4.67345 3.7499 3.77599L3.76273 3.76339L3.77532 3.75057C4.67353 2.83559 5.75973 2.12903 6.95729 1.67875L6.97795 1.67084C8.15314 1.21382 9.53808 0.878186 11.6914 0.779741M0.780282 11.6912C0.67677 13.9901 0.650391 14.7027 0.650391 20.6631C0.650391 26.6249 0.67532 27.3358 0.780229 29.6352M0.780282 11.6912L0.78028 12.2711M1.67923 34.3694C2.12952 35.5669 2.83608 36.6531 3.75106 37.5514L3.76386 37.5639L3.77643 37.5767C4.67395 38.4905 5.7598 39.1978 6.95842 39.6493L6.97631 39.6561C8.15258 40.1123 9.53819 40.448 11.6914 40.5464M1.67923 34.3694L1.67133 34.3487C1.21431 33.1735 0.878675 31.7886 0.780229 29.6352M1.67923 34.3694L1.65224 34.2272M0.780229 29.6352L0.815485 29.8209M0.780229 29.6352L0.780231 29.0539M1.65224 34.2272L0.815485 29.8209M1.65224 34.2272C1.29686 33.2883 0.930919 31.9784 0.815485 29.8209M1.65224 34.2272C1.6647 34.2601 1.67716 34.2926 1.68959 34.3247C2.14027 35.5397 2.85436 36.6397 3.78053 37.546C4.68642 38.472 5.78612 39.1859 7.00068 39.6366C7.97539 40.0163 9.34882 40.413 11.6911 40.5204C14.0549 40.628 14.7852 40.6499 20.6636 40.6499C26.542 40.6499 27.2729 40.6279 29.6367 40.5203C31.9819 40.4129 33.3537 40.0139 34.3249 39.6372C35.5402 39.1867 36.6405 38.4725 37.5467 37.5459C38.4726 36.6401 39.1865 35.5404 39.6371 34.326C40.0168 33.3512 40.4135 31.9778 40.5209 29.6356C40.6284 27.2718 40.6504 26.54 40.6504 20.6631C40.6504 14.7861 40.6284 14.0538 40.5208 11.69C40.4128 9.33257 40.0102 7.95871 39.6318 6.98657C39.137 5.70932 38.5095 4.74332 37.5451 3.7789C36.5827 2.8183 35.6192 2.19052 34.341 1.69526C33.3654 1.31383 31.9906 0.913705 29.6367 0.805828C29.432 0.796511 29.2395 0.787837 29.0549 0.779763M0.815485 29.8209C0.812228 29.76 0.809169 29.6984 0.806316 29.6362C0.796992 29.4313 0.78831 29.2387 0.780231 29.0539M11.6914 0.779741C13.9908 0.674831 14.7032 0.649902 20.6636 0.649902C26.6239 0.649902 27.336 0.676255 29.6348 0.779764M11.6914 0.779741L12.2728 0.779741M29.6348 0.779764L29.0549 0.779763M29.6348 0.779764C31.7867 0.878189 33.1745 1.21503 34.3525 1.67068L34.3688 1.67687C35.5674 2.12835 36.6532 2.83561 37.5507 3.74942L37.5631 3.76211L37.5758 3.77457C38.4898 4.67212 39.197 5.75823 39.6481 6.95718L39.6558 6.97746C40.1128 8.15265 40.4485 9.53759 40.5469 11.691M12.2728 0.779741L29.0549 0.779763M12.2728 0.779741C14.2199 0.694605 15.2961 0.676279 20.6636 0.676279C26.0316 0.676279 27.1075 0.694608 29.0549 0.779763M12.2728 0.779741C12.088 0.787821 11.8954 0.796503 11.6905 0.805828C9.34527 0.913304 7.97347 1.3123 7.00221 1.68901C5.78239 2.1412 4.67842 2.85909 3.77029 3.79067C2.81487 4.75003 2.1895 5.71141 1.69582 6.98547C1.31437 7.96107 0.914171 9.33651 0.806288 11.6906C0.796993 11.8949 0.788338 12.0869 0.78028 12.2711M40.5469 29.6352C40.4485 31.7885 40.1128 33.1741 39.6566 34.3504L39.6498 34.3683C39.1983 35.5669 38.4911 36.6527 37.5773 37.5502L37.5644 37.5628L37.5518 37.5756C36.6536 38.4906 35.5674 39.1971 34.3699 39.6474L34.3492 39.6553C33.174 40.1124 31.7891 40.448 29.6357 40.5464M0.780231 29.0539C0.695093 27.1068 0.676767 26.0306 0.676767 20.6631C0.676767 15.2939 0.695081 14.2192 0.78028 12.2711M0.780231 29.0539L0.78028 12.2711M17.1041 29.2565C18.2326 29.7239 19.4421 29.9645 20.6636 29.9645C23.1305 29.9645 25.4963 28.9845 27.2407 27.2402C28.985 25.4958 29.965 23.13 29.965 20.6631C29.965 18.1962 28.985 15.8304 27.2407 14.086C25.4963 12.3417 23.1305 11.3617 20.6636 11.3617C19.4421 11.3617 18.2326 11.6023 17.1041 12.0697C15.9756 12.5372 14.9502 13.2223 14.0865 14.086C13.2228 14.9497 12.5377 15.9751 12.0702 17.1036C11.6028 18.2321 11.3622 19.4416 11.3622 20.6631C11.3622 21.8846 11.6028 23.0941 12.0702 24.2226C12.5377 25.3511 13.2228 26.3765 14.0865 27.2402C14.9502 28.1039 15.9756 28.789 17.1041 29.2565ZM14.0658 14.0653C15.8156 12.3154 18.1889 11.3324 20.6636 11.3324C23.1382 11.3324 25.5115 12.3154 27.2614 14.0653C29.0112 15.8151 29.9943 18.1884 29.9943 20.6631C29.9943 23.1377 29.0112 25.511 27.2614 27.2609C25.5115 29.0107 23.1382 29.9938 20.6636 29.9938C18.1889 29.9938 15.8156 29.0107 14.0658 27.2609C12.3159 25.511 11.3329 23.1377 11.3329 20.6631C11.3329 18.1884 12.3159 15.8151 14.0658 14.0653ZM35.2483 9.15999C35.2483 9.86829 34.967 10.5476 34.4661 11.0484C33.9653 11.5492 33.286 11.8306 32.5777 11.8306C31.8694 11.8306 31.1901 11.5492 30.6893 11.0484C30.1885 10.5476 29.9071 9.86829 29.9071 9.15999C29.9071 8.4517 30.1885 7.77242 30.6893 7.27158C31.1901 6.77074 31.8694 6.48937 32.5777 6.48937C33.286 6.48937 33.9653 6.77074 34.4661 7.27158C34.967 7.77242 35.2483 8.4517 35.2483 9.15999Z" stroke="white" stroke-width="1.3" stroke-linejoin="round"/>
</svg>
