<svg width="44" height="44" viewBox="0 0 44 44" fill="none" xmlns="http://www.w3.org/2000/svg">
<mask id="mask0_235_339" style="mask-type:luminance" maskUnits="userSpaceOnUse" x="0" y="0" width="44" height="44">
<path d="M43.8095 0H0V43.8095H43.8095V0Z" fill="white"/>
</mask>
<g mask="url(#mask0_235_339)">
<path fill-rule="evenodd" clip-rule="evenodd" d="M41.9482 22.7007C41.9482 34.2988 32.5463 43.7007 20.9482 43.7007C9.35028 43.7007 -0.0517578 34.2988 -0.0517578 22.7007C-0.0517578 11.1027 9.35028 1.70068 20.9482 1.70068C32.5463 1.70068 41.9482 11.1027 41.9482 22.7007ZM21.7009 17.2038C19.6582 18.0534 15.576 19.8118 9.45406 22.4791C8.45996 22.8743 7.93921 23.2612 7.89179 23.6392C7.81167 24.2784 8.61201 24.53 9.70182 24.8727C9.85008 24.9193 10.0037 24.9676 10.1611 25.0189C11.2334 25.3672 12.6757 25.7751 13.4255 25.7912C14.1057 25.8059 14.8648 25.5256 15.7029 24.95C21.4228 21.089 24.3754 19.1374 24.5609 19.0953C24.6917 19.0656 24.8729 19.0283 24.9956 19.1374C25.1184 19.2466 25.1064 19.4533 25.0934 19.5087C25.014 19.8467 21.8724 22.7674 20.2468 24.2788C19.7399 24.7501 19.3804 25.0842 19.3069 25.1606C19.1422 25.3315 18.9745 25.4932 18.8132 25.6489C17.8171 26.609 17.0701 27.3291 18.8546 28.5051C19.7122 29.0702 20.3984 29.5374 21.0828 30.0036C21.8306 30.5129 22.5763 31.0207 23.5411 31.6532C23.787 31.8143 24.0216 31.9816 24.2503 32.1446C25.1205 32.7649 25.9021 33.3223 26.8677 33.2332C27.429 33.1818 28.0086 32.654 28.3031 31.0803C28.9986 27.3612 30.3661 19.303 30.6821 15.9824C30.7099 15.6915 30.675 15.3191 30.6471 15.1557C30.6191 14.9922 30.5606 14.7594 30.3482 14.587C30.0967 14.3828 29.7082 14.3398 29.5345 14.3428C28.7445 14.3567 27.5328 14.7781 21.7009 17.2038Z" fill="white"/>
</g>
</svg>
